<svg xmlns:ct="http://gionkunz.github.com/chartist-js/ct" class="ct-chart-line" viewBox="0 0 1548 291" preserveAspectRatio="none"><g class="ct-grids"></g><g><g class="ct-series ct-series-a"><path d="M0,290.688L0,196.941C67.304,196.941,87.496,239.09,154.8,239.09C222.104,239.09,242.296,207.115,309.6,207.115C376.904,207.115,397.096,244.904,464.4,244.904C531.704,244.904,551.896,186.767,619.2,186.767C686.504,186.767,706.696,220.196,774,220.196C841.304,220.196,861.496,173.686,928.8,173.686C996.104,173.686,1016.296,204.935,1083.6,204.935C1150.904,204.935,1171.096,149.704,1238.4,149.704C1305.704,149.704,1325.896,189.674,1393.2,189.674C1460.504,189.674,1480.696,120.635,1548,120.635L1548,290.688Z" class="ct-area"></path><path d="M0,196.941C67.304,196.941,87.496,239.09,154.8,239.09C222.104,239.09,242.296,207.115,309.6,207.115C376.904,207.115,397.096,244.904,464.4,244.904C531.704,244.904,551.896,186.767,619.2,186.767C686.504,186.767,706.696,220.196,774,220.196C841.304,220.196,861.496,173.686,928.8,173.686C996.104,173.686,1016.296,204.935,1083.6,204.935C1150.904,204.935,1171.096,149.704,1238.4,149.704C1305.704,149.704,1325.896,189.674,1393.2,189.674C1460.504,189.674,1480.696,120.635,1548,120.635" class="ct-line"></path><line x1="0" y1="196.94078125" x2="0.01" y2="196.94078125" class="ct-point" ct:value="229"></line><line x1="154.8" y1="239.09046875" x2="154.81" y2="239.09046875" class="ct-point" ct:value="171"></line><line x1="309.6" y1="207.11484375" x2="309.61" y2="207.11484375" class="ct-point" ct:value="215"></line><line x1="464.40000000000003" y1="244.90421874999998" x2="464.41" y2="244.90421874999998" class="ct-point" ct:value="163"></line><line x1="619.2" y1="186.76671875" x2="619.21" y2="186.76671875" class="ct-point" ct:value="243"></line><line x1="774" y1="220.19578124999998" x2="774.01" y2="220.19578124999998" class="ct-point" ct:value="197"></line><line x1="928.8000000000001" y1="173.68578125" x2="928.8100000000001" y2="173.68578125" class="ct-point" ct:value="261"></line><line x1="1083.6000000000001" y1="204.9346875" x2="1083.6100000000001" y2="204.9346875" class="ct-point" ct:value="218"></line><line x1="1238.4" y1="149.7040625" x2="1238.41" y2="149.7040625" class="ct-point" ct:value="294"></line><line x1="1393.2" y1="189.67359375" x2="1393.21" y2="189.67359375" class="ct-point" ct:value="239"></line><line x1="1548" y1="120.6353125" x2="1548.01" y2="120.6353125" class="ct-point" ct:value="334"></line></g><g class="ct-series ct-series-b"><path d="M0,290.688L0,110.461C67.304,110.461,87.496,220.196,154.8,220.196C222.104,220.196,242.296,195.487,309.6,195.487C376.904,195.487,397.096,265.252,464.4,265.252C531.704,265.252,551.896,146.797,619.2,146.797C686.504,146.797,706.696,215.109,774,215.109C841.304,215.109,861.496,190.4,928.8,190.4C996.104,190.4,1016.296,263.072,1083.6,263.072C1150.904,263.072,1171.096,84.299,1238.4,84.299C1305.704,84.299,1325.896,135.17,1393.2,135.17C1460.504,135.17,1480.696,3.634,1548,3.634L1548,290.688Z" class="ct-area"></path><path d="M0,110.461C67.304,110.461,87.496,220.196,154.8,220.196C222.104,220.196,242.296,195.487,309.6,195.487C376.904,195.487,397.096,265.252,464.4,265.252C531.704,265.252,551.896,146.797,619.2,146.797C686.504,146.797,706.696,215.109,774,215.109C841.304,215.109,861.496,190.4,928.8,190.4C996.104,190.4,1016.296,263.072,1083.6,263.072C1150.904,263.072,1171.096,84.299,1238.4,84.299C1305.704,84.299,1325.896,135.17,1393.2,135.17C1460.504,135.17,1480.696,3.634,1548,3.634" class="ct-line"></path><line x1="0" y1="110.46125" x2="0.01" y2="110.46125" class="ct-point" ct:value="348"></line><line x1="154.8" y1="220.19578124999998" x2="154.81" y2="220.19578124999998" class="ct-point" ct:value="197"></line><line x1="309.6" y1="195.48734374999998" x2="309.61" y2="195.48734374999998" class="ct-point" ct:value="231"></line><line x1="464.40000000000003" y1="265.25234375" x2="464.41" y2="265.25234375" class="ct-point" ct:value="135"></line><line x1="619.2" y1="146.7971875" x2="619.21" y2="146.7971875" class="ct-point" ct:value="298"></line><line x1="774" y1="215.10875" x2="774.01" y2="215.10875" class="ct-point" ct:value="204"></line><line x1="928.8000000000001" y1="190.40031249999998" x2="928.8100000000001" y2="190.40031249999998" class="ct-point" ct:value="238"></line><line x1="1083.6000000000001" y1="263.0721875" x2="1083.6100000000001" y2="263.0721875" class="ct-point" ct:value="138"></line><line x1="1238.4" y1="84.299375" x2="1238.41" y2="84.299375" class="ct-point" ct:value="384"></line><line x1="1393.2" y1="135.1696875" x2="1393.21" y2="135.1696875" class="ct-point" ct:value="314"></line><line x1="1548" y1="3.6335937499999886" x2="1548.01" y2="3.6335937499999886" class="ct-point" ct:value="495"></line></g></g><g class="ct-labels"></g><defs><linearGradient id="gradient-a" x1="0" y1="0" x2="1" y2="0"><stop offset="0"></stop><stop offset="1"></stop></linearGradient><linearGradient id="gradient-b" x1="0" y1="0" x2="1" y2="0"><stop offset="0"></stop><stop offset="1"></stop></linearGradient></defs></svg>